<svg width="60" height="60" viewBox="0 0 60 60" fill="none" xmlns="http://www.w3.org/2000/svg">
<g id="Icon">
<circle id="Ellipse 1" cx="30" cy="30" r="30" fill="#6ABF62"/>
<g id="Restaurants icon">
<path id="Vector" d="M30.4793 19.5762C24.9923 19.5762 20.5441 24.0244 20.5441 29.5114C20.5441 34.9985 24.9923 39.4467 30.4793 39.4467C35.9664 39.4467 40.4146 34.9985 40.4146 29.5114C40.4146 24.0244 35.9664 19.5762 30.4793 19.5762ZM30.4793 37.0501C26.3225 37.0501 22.9407 33.6683 22.9407 29.5115C22.9407 25.3547 26.3225 21.973 30.4793 21.973C34.636 21.973 38.0178 25.3547 38.0178 29.5115C38.0178 33.6683 34.6361 37.0501 30.4793 37.0501Z" fill="white"/>
<path id="Vector_2" d="M30.4793 23.9936C27.4367 23.9936 24.9615 26.4689 24.9615 29.5114C24.9615 32.554 27.4367 35.0293 30.4793 35.0293C33.5218 35.0293 35.9971 32.554 35.9971 29.5114C35.9971 26.4689 33.5219 23.9936 30.4793 23.9936Z" fill="white"/>
<path id="Vector_3" d="M44.3739 30.3445V18.2714C44.3739 18.1549 44.2996 18.0514 44.1891 18.0142C44.0787 17.977 43.9568 18.0146 43.8864 18.1074C42.38 20.0939 41.5648 22.5185 41.5648 25.0115V29.4282C41.5648 29.9347 41.9754 30.3454 42.482 30.3454H42.8644C42.4874 34.2385 42.2384 39.6835 42.2384 40.321C42.2384 41.3255 42.8566 42.1397 43.6192 42.1397C44.3818 42.1397 45 41.3254 45 40.321C45 39.6834 44.7509 34.2376 44.3739 30.3445Z" fill="white"/>
<path id="Vector_4" d="M19.0088 27.9513C19.773 27.4884 20.2838 26.6491 20.2838 25.6904L19.9052 19.5016C19.8908 19.2657 19.6952 19.0818 19.4589 19.0818C19.2032 19.0818 18.9996 19.296 19.0123 19.5512L19.2584 24.5146C19.2584 24.7936 19.0322 25.0197 18.7533 25.0197C18.4743 25.0197 18.2481 24.7935 18.2481 24.5146L18.1252 19.5532C18.1187 19.291 17.9043 19.0819 17.6419 19.0819C17.3796 19.0819 17.1653 19.2911 17.1587 19.5532L17.0357 24.5146C17.0357 24.7936 16.8095 25.0197 16.5306 25.0197C16.2516 25.0197 16.0254 24.7935 16.0254 24.5146L16.2716 19.5512C16.2843 19.2959 16.0805 19.0818 15.825 19.0818C15.5886 19.0818 15.3931 19.2657 15.3787 19.5016L15 25.6904C15 26.6491 15.5107 27.4884 16.2749 27.9513C16.7723 28.2526 17.0496 28.8158 16.9854 29.3937C16.554 33.2819 16.2611 39.6296 16.2611 40.3211C16.2611 41.3255 16.8793 42.1397 17.6419 42.1397C18.4045 42.1397 19.0227 41.3255 19.0227 40.3211C19.0227 39.6296 18.7297 33.2819 18.2983 29.3937C18.2341 28.8161 18.5117 28.2524 19.0088 27.9513Z" fill="white"/>
</g>
</g>
</svg>
