<svg width="60" height="60" viewBox="0 0 60 60" fill="none" xmlns="http://www.w3.org/2000/svg">
<g id="Icon">
<circle id="Ellipse 1" cx="30" cy="30" r="30" fill="#BD7507"/>
<path id="Consultants" fill-rule="evenodd" clip-rule="evenodd" d="M22.1069 30.5837L22.0801 32.217H25.0294C25.6544 32.217 26.1646 32.7272 26.1646 33.3522V34.4875H26.1524V38.9261C26.1524 39.5511 25.6422 40.0613 25.0171 40.0613H23.8819V34.8977C23.8819 34.4289 23.9698 34.4875 23.5181 34.4875H20.5981V34.4802H19.143C18.2055 34.4802 17.4365 33.7111 17.4365 32.7736V27.1827C17.4365 26.2281 18.2177 25.4469 19.1723 25.4469H20.0317C21.394 25.4469 21.5283 26.0987 21.875 26.7799L23.3252 27.3512C24.375 27.8248 24.1065 27.9176 24.8194 27.0338L25.7471 25.8863C26.2012 25.1612 27.9957 25.9181 27.2266 27.1363L25.8814 28.9723C25.3223 29.7365 24.5777 29.8439 23.6768 29.4704L22.1094 28.9186V30.5837H22.1069ZM44.0677 38.9993C44.058 38.9285 44.0287 38.8626 43.9749 38.8089C43.5819 38.4134 43.0863 38.0911 42.5198 37.8689C42.1243 37.7151 41.6922 37.6101 41.2405 37.5637L41.326 36.2112H44.4046C44.7245 36.2112 44.9881 35.9475 44.9881 35.6277C44.9881 33.2106 44.4193 31.3942 44.9881 28.6427C45.1566 27.8273 43.4744 27.7101 43.4744 28.6867V34.8806H37.6516C37.3318 34.8806 37.0681 35.3103 37.0681 35.6301V36.0842C37.0681 36.155 37.1267 36.2136 37.1975 36.2136H40.2859L40.4056 37.5515C39.927 37.5833 39.4705 37.6809 39.0481 37.8347C38.5061 38.0325 38.0251 38.323 37.6345 38.6795C37.5417 38.7649 37.5076 38.8919 37.5369 39.0066C37.3855 39.1189 37.2878 39.2312 37.2878 39.5047C37.2878 39.7781 37.5662 40.1248 37.908 40.1248C38.2498 40.1248 38.5281 39.7781 38.5281 39.5047C38.5281 39.2312 38.428 39.1165 38.2742 39.0042C38.5647 38.7796 38.9016 38.5916 39.2727 38.4573C39.6707 38.3108 40.1101 38.2229 40.574 38.2083L40.6424 38.8797L40.6448 38.909C40.3836 38.9822 40.1907 39.1922 40.1907 39.5071C40.1907 39.8221 40.469 40.1273 40.8108 40.1273C41.1526 40.1273 41.431 39.8196 41.431 39.5071C41.431 39.1946 41.2405 38.9847 40.9817 38.9114L40.9842 38.8797L41.033 38.2156C41.4749 38.2449 41.8948 38.3401 42.2757 38.489H42.2781C42.6492 38.6331 42.9837 38.8284 43.2694 39.0652C43.1546 39.1775 43.0838 39.2508 43.0838 39.5071C43.0838 39.7635 43.3621 40.1273 43.7039 40.1273C44.0457 40.1273 44.3241 39.7806 44.3241 39.5071C44.3265 39.2264 44.224 39.1116 44.0677 38.9993ZM39.0994 20.083C37.7883 20.083 36.7239 21.1475 36.7239 22.4585C36.7239 23.7696 37.7883 24.8341 39.0994 24.8341C40.4104 24.8341 41.4749 23.7696 41.4749 22.4585C41.4725 21.1475 40.4104 20.083 39.0994 20.083ZM38.1106 29.3996L38.157 32.217H35.2077C34.5827 32.217 34.0725 32.7272 34.0725 33.3522V34.4875H34.0847V38.9261C34.0847 39.5511 34.5949 40.0613 35.2199 40.0613H36.3552V34.8122C36.3552 34.3142 36.5432 34.4875 37.1047 34.4875H39.6389V34.4802H41.094C42.034 34.4802 42.8006 33.7111 42.8006 32.7736V26.8507C42.8006 25.8961 42.0193 25.1148 41.0647 25.1148H40.2054C38.4182 25.1148 38.7014 26.3453 37.9104 27.1192C37.1291 27.8834 37.3245 27.9713 36.2575 27.9713H33.9577C32.5856 27.9713 32.2487 29.7658 34.2043 29.7658H36.3137C37.2537 29.7658 37.3342 29.9147 38.1106 29.3996ZM35.8547 30.132C32.1535 30.132 29.2848 30.132 25.5836 30.132C25.5274 30.132 25.4835 30.1784 25.4835 30.2321V31.6774C25.4835 31.7336 25.5298 31.7775 25.5836 31.7775C27.5172 31.7775 27.9591 31.7775 29.8951 31.7775V40.6424C29.8951 40.7156 29.9562 40.7767 30.0294 40.7767H30.0807H30.0831H31.5041H31.5065H31.5578C31.631 40.7767 31.692 40.7156 31.692 40.6424V31.78C32.9689 31.78 34.5778 31.78 35.8547 31.78C35.9084 31.78 35.9548 31.7336 35.9548 31.6799V30.2345C35.9548 30.1759 35.9084 30.132 35.8547 30.132ZM15.3149 28.9796H16.1425C16.311 28.9796 16.4233 29.1212 16.4501 29.2872C16.7626 31.2599 16.9335 33.2326 16.9238 35.2029H22.5879C22.8125 35.2029 22.9932 35.386 22.9932 35.6081V36.4285H22.6685V40.6302C22.6685 40.6985 22.6123 40.7547 22.544 40.7547H21.4575C21.3892 40.7547 21.333 40.6985 21.333 40.6302V38.804H16.7016C16.6332 39.3606 16.5502 39.9173 16.4501 40.4739C16.4208 40.64 16.311 40.7816 16.1425 40.7816H15.3149C15.1464 40.7816 14.9608 40.6375 15.0072 40.4739C16.0986 36.6751 15.8715 32.9616 15.0072 29.2897C14.9682 29.1237 15.1464 28.9796 15.3149 28.9796ZM21.3354 38.2376V36.4309H16.9067C16.8823 37.2 16.8285 37.4685 16.7455 38.2376H21.3354ZM19.978 20C21.2891 20 22.3535 21.0645 22.3535 22.3755C22.3535 23.6866 21.2891 24.751 19.978 24.751C18.667 24.751 17.6025 23.6866 17.6025 22.3755C17.6025 21.0645 18.6645 20 19.978 20Z" fill="white"/>
</g>
</svg>
