<svg width="60" height="60" viewBox="0 0 60 60" fill="none" xmlns="http://www.w3.org/2000/svg">
<g id="Icon">
<circle id="Ellipse 1" cx="30" cy="30" r="30" fill="#FDC00D"/>
<path id="Contractors" fill-rule="evenodd" clip-rule="evenodd" d="M15 43.8491H22.8271V34.1958C22.8271 34.1323 22.8345 34.0688 22.8491 34.0078C16.3306 34.938 16.6626 37.9458 15 43.8491ZM24.9268 24.3301V25.5459L25.3418 26.1147C25.4053 26.2002 25.4395 26.3003 25.4443 26.4004H25.4468C25.5957 28.5122 26.1597 29.8257 27.0044 30.6509C27.8271 31.4541 28.9502 31.8228 30.2295 32.0278C31.6113 31.8008 32.6953 31.2222 33.4668 30.314C34.27 29.3691 34.7583 28.0532 34.9097 26.3931C34.917 26.3076 34.9438 26.2295 34.9854 26.1611L35.354 25.5508L35.3613 24.2861L36.4502 24.291L36.4429 25.6704C36.4502 25.7778 36.4258 25.8901 36.3647 25.9902L35.9814 26.625C35.7935 28.4536 35.2246 29.9282 34.2944 31.022C33.3325 32.1523 32.0044 32.8604 30.3247 33.1216C30.2661 33.1313 30.2075 33.1338 30.1465 33.124C28.6304 32.8921 27.2803 32.4478 26.2427 31.4346C25.2319 30.4482 24.5557 28.9517 24.3677 26.6323L23.9697 26.0854C23.8843 25.9878 23.833 25.8608 23.833 25.7217V24.3325H24.9268V24.3301ZM29.9316 16C30.4541 16 30.9619 16.0537 31.4526 16.1562L31.3599 20.5337L32.9541 16.6396C35.2002 17.6382 36.8604 19.7134 37.2778 22.2109H38.1396V23.2339H37.3779C37.3779 23.2388 37.3779 23.2437 37.3779 23.2485H22.4829C22.4829 23.2437 22.4829 23.2388 22.4829 23.2339H21.8604V22.2109H22.583C23.0151 19.6328 24.7705 17.5039 27.1289 16.5469L28.5229 20.4678L28.6694 16.1074C29.0796 16.0366 29.502 16 29.9316 16ZM29.1675 40.3481H30.8301V42.0107H29.1675V40.3481ZM29.1675 36.2368H30.8301V37.8994H29.1675V36.2368ZM24.3628 43.8491H30H35.6372V34.1958C35.6372 34.0762 35.6641 33.9614 35.7153 33.8613L30 33.8955L24.2847 33.8613C24.3335 33.9614 24.3628 34.0762 24.3628 34.1958V43.8491ZM37.1729 43.8491H45C43.3374 37.9458 43.6694 34.938 37.1484 34.0103C37.1631 34.0713 37.1704 34.1323 37.1704 34.1982V43.8491H37.1729Z" fill="white"/>
</g>
</svg>
