<svg width="60" height="60" viewBox="0 0 60 60" fill="none" xmlns="http://www.w3.org/2000/svg">
<g id="Icon">
<circle id="Ellipse 1" cx="30" cy="30" r="30" fill="#F14E2F"/>
<g id="Car">
<path id="Vector" d="M35.2936 23.8944C35.385 23.9858 35.505 24.0317 35.625 24.0317C35.745 24.0317 35.865 23.9858 35.9564 23.8944C36.1397 23.7111 36.1397 23.4149 35.9564 23.2316L35.0189 22.2941C34.8356 22.1108 34.5394 22.1108 34.3561 22.2941C34.1728 22.4774 34.1728 22.7736 34.3561 22.9569L35.2936 23.8944Z" fill="white"/>
<path id="Vector_2" d="M35.2936 26.2377C35.385 26.3291 35.505 26.375 35.625 26.375C35.745 26.375 35.865 26.3291 35.9564 26.2377C36.1397 26.0544 36.1397 25.7581 35.9564 25.5748L32.6752 22.2936C32.4919 22.1103 32.1956 22.1103 32.0123 22.2936C31.8291 22.4769 31.8291 22.7731 32.0123 22.9564L35.2936 26.2377Z" fill="white"/>
<g id="Group">
<path id="Vector_3" d="M20.1562 36.2188C20.674 36.2188 21.0938 35.799 21.0938 35.2812C21.0938 34.7635 20.674 34.3438 20.1562 34.3438C19.6385 34.3438 19.2188 34.7635 19.2188 35.2812C19.2188 35.799 19.6385 36.2188 20.1562 36.2188Z" fill="white"/>
<path id="Vector_4" d="M42.6478 30.1663C42.6492 30.1517 42.6562 30.14 42.6562 30.125C42.6562 28.7816 42.3802 17 32.8125 17H27.1875C20.9316 17 17.3438 21.7841 17.3438 30.125C17.3438 30.1395 17.3508 30.1517 17.3522 30.1663C16.02 30.387 15 31.5444 15 32.9375V37.625C15 39.1761 16.2614 40.4375 17.8125 40.4375V42.7812C17.8125 43.0405 18.022 43.25 18.2812 43.25H22.0312C22.2905 43.25 22.5 43.0405 22.5 42.7812V40.4375H37.5V42.7812C37.5 43.0405 37.7095 43.25 37.9688 43.25H41.7188C41.978 43.25 42.1875 43.0405 42.1875 42.7812V40.4375C43.7386 40.4375 45 39.1761 45 37.625V32.9375C45 31.5444 43.98 30.387 42.6478 30.1663ZM21.5625 42.3125H18.75V40.4375H21.5625V42.3125ZM20.1562 37.1562C19.1222 37.1562 18.2812 36.3153 18.2812 35.2812C18.2812 34.2472 19.1222 33.4062 20.1562 33.4062C21.1903 33.4062 22.0312 34.2472 22.0312 35.2812C22.0312 36.3153 21.1903 37.1562 20.1562 37.1562ZM35.1562 36.6875H24.8438C24.5845 36.6875 24.375 36.478 24.375 36.2188C24.375 35.9595 24.5845 35.75 24.8438 35.75H35.1562C35.4155 35.75 35.625 35.9595 35.625 36.2188C35.625 36.478 35.4155 36.6875 35.1562 36.6875ZM23.4375 30.125C23.4375 28.572 24.697 27.3125 26.25 27.3125C27.803 27.3125 29.0625 28.572 29.0625 30.125H23.4375ZM35.1562 34.8125H24.8438C24.5845 34.8125 24.375 34.603 24.375 34.3438C24.375 34.0845 24.5845 33.875 24.8438 33.875H35.1562C35.4155 33.875 35.625 34.0845 35.625 34.3438C35.625 34.603 35.4155 34.8125 35.1562 34.8125ZM30 30.125C30 28.0541 28.3209 26.375 26.25 26.375C24.1791 26.375 22.5 28.0541 22.5 30.125H20.1562C20.1562 21.6013 24.2348 19.8125 27.6562 19.8125H32.3438C35.3156 19.8125 37.4573 21.2937 38.7098 24.2159C39.7617 26.6713 39.8438 29.3595 39.8438 30.125H30ZM41.25 42.3125H38.4375V40.4375H41.25V42.3125ZM39.8438 37.1562C38.8097 37.1562 37.9688 36.3153 37.9688 35.2812C37.9688 34.2472 38.8097 33.4062 39.8438 33.4062C40.8778 33.4062 41.7188 34.2472 41.7188 35.2812C41.7188 36.3153 40.8778 37.1562 39.8438 37.1562Z" fill="white"/>
<path id="Vector_5" d="M39.8438 36.2188C40.3615 36.2188 40.7812 35.799 40.7812 35.2812C40.7812 34.7635 40.3615 34.3438 39.8438 34.3438C39.326 34.3438 38.9062 34.7635 38.9062 35.2812C38.9062 35.799 39.326 36.2188 39.8438 36.2188Z" fill="white"/>
</g>
</g>
</g>
</svg>
