<svg width="60" height="60" viewBox="0 0 60 60" fill="none" xmlns="http://www.w3.org/2000/svg">
<g id="Icon">
<circle id="Ellipse 1" cx="30" cy="30" r="30" fill="#00CCCC"/>
<g id="Spa">
<path id="Vector" d="M39.2767 23.1068C38.7544 21.7244 37.9819 20.5515 36.9811 19.6195C35.9583 18.6656 34.6979 17.9681 33.2279 17.5396C33.2279 17.5396 33.2279 17.5396 33.2248 17.5365C31.589 15.9008 29.4122 15 27.0978 15C24.7834 15 22.6097 15.9008 20.9739 17.5365C19.3382 19.1722 18.4374 21.349 18.4374 23.6635C18.4374 24.2546 18.4969 24.8363 18.6126 25.4056C18.1653 26.7098 17.962 28.0922 18.0058 29.5372C18.0809 31.9923 18.8784 34.5695 20.3703 37.1966C20.3734 37.1998 20.3765 37.2061 20.3797 37.2092C20.9614 41.6066 24.7239 45 29.2809 45C33.2936 45 36.6933 42.3666 37.8442 38.7324C38.1508 38.4978 38.4417 38.2444 38.7169 37.9661C40.3526 36.3303 41.2533 34.1535 41.2533 31.8391C41.2533 30.2472 40.828 28.7209 40.0304 27.3916C40.0367 26.5815 39.9554 24.8989 39.2767 23.1068ZM33.3186 37.0559C32.2708 37.0559 31.4233 36.2083 31.4233 35.1605C31.4233 34.1128 32.2708 33.2652 33.3186 33.2652C34.3663 33.2652 35.214 34.1128 35.214 35.1605C35.214 36.2083 34.3632 37.0559 33.3186 37.0559ZM34.357 28.6114H38.9201C39.4268 29.5997 39.6927 30.6975 39.6927 31.8391C39.6927 33.4029 39.1891 34.8885 38.2602 36.1145C38.2602 36.0832 38.2602 36.0488 38.2602 36.0175C38.2602 32.9431 36.7121 30.2283 34.357 28.6114ZM38.4635 27.0476H37.8286C35.4266 27.0476 33.0309 27.01 30.6257 27.0069C28.8805 27.0069 27.0946 27.1633 25.4995 27.8732C22.8911 29.0336 21.3273 31.5356 20.6486 34.2223C20.6111 34.1316 20.5767 34.0409 20.5392 33.9502C19.9387 32.4177 19.6103 30.9227 19.5665 29.4871C19.5508 28.9961 19.5696 28.5144 19.6196 28.0421C19.6666 27.6043 19.7416 27.1727 19.8448 26.7504C19.948 26.3251 20.0794 25.9122 20.2389 25.5056C20.4203 25.049 20.6361 24.6018 20.8863 24.1702C21.8496 22.5156 23.304 21.1145 25.0961 20.123C26.7662 19.1973 28.6428 18.6875 30.3755 18.6875C30.9259 18.6875 31.4576 18.7375 31.9581 18.8407C32.1051 18.872 32.2521 18.9033 32.3928 18.9377C32.8526 19.0503 33.2904 19.1941 33.7001 19.363C34.1505 19.5507 34.5727 19.7696 34.9606 20.0261C36.2523 20.8674 37.2031 22.0747 37.8005 23.6416C38.0194 24.2171 38.1664 24.7832 38.2664 25.3023C38.3571 25.7684 38.4072 26.1968 38.4322 26.5596C38.451 26.7348 38.4604 26.9006 38.4635 27.0476ZM27.1009 16.5638C28.0767 16.5638 29.0212 16.7608 29.8938 17.133C28.0392 17.2175 26.0875 17.7867 24.3423 18.7531C22.6221 19.7071 21.171 20.9956 20.095 22.5188C20.3296 21.0582 21.0146 19.7133 22.0811 18.6468C23.4197 17.3019 25.2024 16.5638 27.1009 16.5638ZM25.3369 37.0559C24.2892 37.0559 23.4416 36.2083 23.4416 35.1605C23.4416 34.5726 23.7074 34.0502 24.1265 33.7031C24.3361 33.5311 24.58 33.4028 24.849 33.3309C25.0054 33.2903 25.168 33.2683 25.3338 33.2683C25.437 33.2683 25.5371 33.2778 25.6372 33.2934C26.541 33.4373 27.2291 34.2192 27.2291 35.1637C27.2291 35.5265 27.1259 35.8674 26.9508 36.1552C26.81 36.3834 26.6255 36.5774 26.4066 36.7275C26.1845 36.8807 25.928 36.9871 25.6528 37.0309C25.5527 37.0465 25.4464 37.0559 25.3369 37.0559ZM30.7383 42.3415C30.5538 42.7544 29.9939 43.0547 29.3278 43.0547C28.6616 43.0547 28.0986 42.7544 27.9172 42.3415C27.8515 42.1977 28.011 42.0507 28.2331 42.0507H30.4287C30.6476 42.0507 30.804 42.1946 30.7383 42.3415ZM30.4256 41.2563H28.23C28.0079 41.2563 27.8515 41.1093 27.9141 40.9654C28.0673 40.6182 28.3519 40.3524 28.8617 40.2742C28.9243 40.2648 28.9868 40.2742 29.0463 40.3023L29.187 40.3711C29.2746 40.4149 29.3778 40.4149 29.4654 40.3711L29.6029 40.3023C29.6592 40.2742 29.7249 40.2648 29.7875 40.2742C30.2973 40.3492 30.5819 40.6182 30.7352 40.9654C30.804 41.1124 30.6476 41.2563 30.4256 41.2563Z" fill="white"/>
<path id="Vector_2" d="M26.7162 35.8267C26.7819 35.7204 26.8038 35.5859 26.7662 35.4546C26.7037 35.2388 26.5035 35.1043 26.2909 35.1136C26.2564 35.1168 26.222 35.1199 26.1876 35.1293C25.9656 35.1918 25.7279 35.2294 25.4808 35.2388C25.4432 35.2388 25.4057 35.2419 25.3682 35.2419C25.0929 35.2419 24.824 35.2075 24.5769 35.1387C24.5331 35.1262 24.4924 35.1136 24.4518 35.1011C24.2047 35.0198 23.942 35.1543 23.8607 35.3983C23.7793 35.6453 23.9138 35.9081 24.1578 35.9894C24.4518 36.0863 24.7614 36.1458 25.0867 36.1677C25.1805 36.1739 25.2744 36.177 25.3682 36.177C25.5777 36.177 25.7842 36.1614 25.9843 36.1301C26.1407 36.1051 26.2939 36.0739 26.444 36.0301C26.5629 36.0019 26.6568 35.9268 26.7162 35.8267Z" fill="white"/>
<path id="Vector_3" d="M34.1943 35.1356C33.9379 35.2075 33.6626 35.2451 33.3749 35.2451C33.0527 35.2451 32.7369 35.1949 32.4585 35.1043C32.2115 35.0229 31.9487 35.1574 31.8674 35.4014C31.7861 35.6485 31.9206 35.9112 32.1645 35.9925C32.543 36.1176 32.9496 36.1801 33.3749 36.1801C33.7502 36.1801 34.1099 36.1301 34.4508 36.0332C34.701 35.9612 34.8449 35.7017 34.7729 35.4546C34.7041 35.2075 34.4445 35.0636 34.1943 35.1356Z" fill="white"/>
</g>
</g>
</svg>
