<svg width="60" height="60" viewBox="0 0 60 60" fill="none" xmlns="http://www.w3.org/2000/svg">
<g id="Icon">
<circle id="Ellipse 1" cx="30" cy="30" r="30" fill="#B57979"/>
<path id="Event" d="M30.1469 28.9661C31.4619 30.2811 32.4522 31.6818 32.9892 32.8845C33.565 34.1709 33.6242 35.2633 33.0321 35.8554C32.7544 36.1331 32.3644 36.2679 31.8968 36.272L21.518 40.8968C18.888 42.1975 17.5935 42.3935 17.1504 41.6952C16.7318 41.0356 17.228 39.637 18.1305 37.6502L22.8493 27.0202C22.886 26.6384 23.0167 26.3199 23.2556 26.081C23.8478 25.4888 24.9402 25.548 26.2265 26.1238C27.4312 26.6609 28.832 27.6491 30.1469 28.9661ZM40.6544 35.1612C40.9648 35.4715 40.9648 35.9759 40.6544 36.2862C40.344 36.5966 39.8397 36.5966 39.5293 36.2862C39.219 35.9759 39.219 35.4715 39.5293 35.1612C39.8397 34.8508 40.342 34.8508 40.6544 35.1612ZM41.4099 31.4531C41.6304 31.4123 41.8428 31.5573 41.8836 31.7778C41.9244 31.9983 41.7795 32.2107 41.559 32.2515C40.4788 32.4557 39.5702 31.7941 38.6309 31.1121C37.3956 30.2137 36.099 29.2704 34.4594 30.9549C34.3042 31.1162 34.0469 31.1183 33.8856 30.9631C33.7243 30.8079 33.7222 30.5506 33.8774 30.3893C36.0071 28.2004 37.5957 29.3541 39.1067 30.4547C39.903 31.0325 40.6728 31.592 41.4099 31.4531ZM41.5957 19.3387C41.8203 19.3387 42 19.5204 42 19.743C42 19.9676 41.8183 20.1473 41.5957 20.1473C39.7294 20.1514 39.2394 21.6542 38.7208 23.2428C38.1184 25.0907 37.4813 27.0386 34.9535 27.4715C34.7187 27.5123 34.4777 27.5511 34.2123 27.5879C33.9591 27.6226 33.708 27.6512 33.4548 27.6675C33.2302 27.6818 33.0382 27.5123 33.0239 27.2877C33.0096 27.0631 33.1791 26.8712 33.4037 26.8569C33.6406 26.8405 33.8733 26.816 34.1041 26.7834C34.3246 26.7527 34.5676 26.7139 34.8167 26.6711C36.8606 26.3219 37.4201 24.6129 37.9469 22.9937C38.5615 21.1172 39.1393 19.3448 41.5957 19.3387ZM27.2577 17.3315C27.2985 17.111 27.5109 16.966 27.7314 17.0069C27.9519 17.0477 28.0969 17.2601 28.0561 17.4806C27.9233 18.181 28.4093 18.9283 28.9096 19.696C29.9489 21.2948 31.0413 22.9712 28.2909 25.1478C28.1153 25.2867 27.86 25.2561 27.7212 25.0804C27.5823 24.9048 27.613 24.6496 27.7886 24.5108C29.9591 22.7936 29.0749 21.4316 28.2296 20.135C27.6375 19.2305 27.0637 18.3504 27.2577 17.3315ZM36.4829 18.5362L35.7069 20.0677L36.8524 21.2254L35.2292 21.0049L34.4471 22.4546L34.1898 20.8415L32.5706 20.5557L34.0244 19.8022L33.7876 18.1177L34.9637 19.3244L36.4829 18.5362ZM32.8116 23.5062C33.1219 23.8165 33.1219 24.3209 32.8116 24.6312C32.5012 24.9416 31.9969 24.9416 31.6865 24.6312C31.3761 24.3209 31.3761 23.8165 31.6865 23.5062C31.9969 23.1958 32.5012 23.1958 32.8116 23.5062ZM31.6497 18.0605C31.9601 18.3709 31.9601 18.8752 31.6497 19.1856C31.3394 19.4959 30.835 19.4959 30.5247 19.1856C30.2143 18.8752 30.2143 18.3709 30.5247 18.0605C30.835 17.7501 31.3394 17.7501 31.6497 18.0605ZM26.5124 21.9993C26.8228 22.3096 26.8228 22.814 26.5124 23.1243C26.202 23.4347 25.6977 23.4347 25.3873 23.1243C25.077 22.814 25.077 22.3096 25.3873 21.9993C25.6977 21.6889 26.2 21.6889 26.5124 21.9993ZM40.1991 26.5383C40.5094 26.8487 40.5094 27.3531 40.1991 27.6634C39.8887 27.9738 39.3844 27.9738 39.074 27.6634C38.7636 27.3531 38.7636 26.8487 39.074 26.5383C39.3844 26.228 39.8887 26.228 40.1991 26.5383ZM37.6998 32.6435L36.734 33.2745L37.0117 34.3322L36.1419 33.6584L35.2006 34.2382L35.5926 33.2132L34.7473 32.5027L35.8458 32.5517L36.2746 31.4919L36.5523 32.5884L37.6998 32.6435ZM23.6068 29.6706C24.4154 32.0432 26.1979 35.1081 28.7544 37.007L30.8024 36.0923C30.5635 36.0188 30.3164 35.9248 30.0591 35.8105C28.8565 35.2735 27.4557 34.2832 26.1408 32.9682C25.0463 31.8738 24.1765 30.7201 23.6068 29.6706ZM25.8018 38.322C23.6129 36.3985 22.3123 34.3015 21.2301 32.1637L19.8722 35.2245C20.3949 36.3107 21.8283 38.1443 23.1984 39.4818L25.8018 38.322ZM20.4685 40.7232C19.4475 39.8432 18.9799 39.3062 18.4756 38.3628C17.7854 39.9167 17.4138 40.9805 17.6609 41.3685C17.8773 41.7074 18.7186 41.5359 20.4685 40.7232ZM23.4516 27.0733C23.4537 27.0876 23.4537 27.1039 23.4516 27.1203C23.4312 27.4245 23.4884 27.7859 23.6191 28.1902C23.6824 28.3842 23.762 28.5904 23.858 28.8048C24.3643 29.9401 25.3118 31.2734 26.5757 32.5394C27.8396 33.8033 29.175 34.7508 30.3103 35.2571C30.5533 35.3654 30.786 35.4552 31.0045 35.5205C31.3047 35.6104 31.5803 35.6614 31.8253 35.6655C31.8437 35.6655 31.8621 35.6676 31.8805 35.6696C32.1868 35.6676 32.4338 35.5879 32.5992 35.4225C32.9933 35.0285 32.9014 34.1811 32.4318 33.1316C31.9254 31.9963 30.978 30.6629 29.7141 29.397C28.4501 28.133 27.1147 27.1856 25.9795 26.6792C24.9299 26.2096 24.0826 26.1177 23.6885 26.5118C23.5537 26.6486 23.4761 26.8385 23.4516 27.0733Z" fill="white"/>
</g>
</svg>
