<svg width="60" height="60" viewBox="0 0 60 60" fill="none" xmlns="http://www.w3.org/2000/svg">
<g id="Icon">
<circle id="Ellipse 1" cx="30" cy="30" r="30" fill="#403A3A"/>
<g id="Gym">
<path id="Vector" d="M41.9296 26.7405L36.9677 19.654L39.3298 18L44.2918 25.0865L41.9296 26.7405Z" fill="white"/>
<path id="Vector_2" d="M39.2134 30.4024L36.7325 26.8593L24.9216 35.1294L27.4025 38.6725L25.0404 40.3266L18.4244 30.8778L20.7865 29.2239L23.2676 32.7672L35.0784 24.4971L32.5974 20.9538L34.9596 19.2998L41.5756 28.7485L39.2134 30.4024Z" fill="white"/>
<path id="Vector_3" d="M42.6378 22.7242L45 21.0702L43.3459 18.7081L40.9838 20.3621L42.6378 22.7242Z" fill="white"/>
<path id="Vector_4" d="M23.0323 39.9725L18.0703 32.8859L15.7082 34.5399L20.6702 41.6264L23.0323 39.9725Z" fill="white"/>
<path id="Vector_5" d="M19.0162 39.2644L16.654 40.9183L15 38.5562L17.3622 36.9022L19.0162 39.2644Z" fill="white"/>
</g>
</g>
</svg>
