<svg width="60" height="60" viewBox="0 0 60 60" fill="none" xmlns="http://www.w3.org/2000/svg">
<g id="Icon">
<circle id="Ellipse 1" cx="30" cy="30" r="30" fill="#FF9E0F"/>
<path id="Hotel" d="M29.5 15L16 19.8493V42.0367H43V19.8493L29.5 15ZM29.5 16.2473L41.8261 20.6747V21.7752L29.5 17.3478L17.1739 21.7752V20.6747L29.5 16.2473ZM17.1739 23.2541H18.3478V24.428H17.1739V23.2541ZM40.6522 23.2541H41.8261V24.428H40.6522V23.2541ZM20.6957 25.0149H21.8696V29.7106H23.502C23.22 29.3988 23.0435 28.9907 23.0435 28.5367C23.0435 27.5645 23.8322 26.7758 24.8043 26.7758C25.7765 26.7758 26.5652 27.5645 26.5652 28.5367C26.5652 28.9907 26.3887 29.3988 26.1067 29.7106H27.7391V26.7758H33.0217C34.6427 26.7758 35.9565 28.0896 35.9565 29.7106H37.1304V25.0149H38.3043V40.8628H37.1304V39.6889H21.8696V40.8628H20.6957V25.0149ZM17.1739 25.6019H18.3478V26.7758H17.1739V25.6019ZM40.6522 25.6019H41.8261V26.7758H40.6522V25.6019ZM17.1739 27.9497H18.3478V29.1236H17.1739V27.9497ZM40.6522 27.9497H41.8261V29.1236H40.6522V27.9497ZM17.1739 30.2976H18.3478V31.4715H17.1739V30.2976ZM40.6522 30.2976H41.8261V31.4715H40.6522V30.2976ZM21.8696 30.8845V38.5149H23.502C23.22 38.2031 23.0435 37.795 23.0435 37.341C23.0435 36.3689 23.8322 35.5802 24.8043 35.5802C25.7765 35.5802 26.5652 36.3689 26.5652 37.341C26.5652 37.795 26.3887 38.2031 26.1067 38.5149H27.7391V35.5802H33.0217C34.6427 35.5802 35.9565 36.8939 35.9565 38.5149H37.1304V30.8845H21.8696ZM17.1739 32.6454H18.3478V33.8193H17.1739V32.6454ZM40.6522 32.6454H41.8261V33.8193H40.6522V32.6454ZM17.1739 34.9932H18.3478V36.1671H17.1739V34.9932ZM40.6522 34.9932H41.8261V36.1671H40.6522V34.9932ZM17.1739 37.341H18.3478V38.5149H17.1739V37.341ZM40.6522 37.341H41.8261V38.5149H40.6522V37.341ZM17.1739 39.6889H18.3478V40.8628H17.1739V39.6889ZM40.6522 39.6889H41.8261V40.8628H40.6522V39.6889Z" fill="white"/>
</g>
</svg>
