<svg width="60" height="60" viewBox="0 0 60 60" fill="none" xmlns="http://www.w3.org/2000/svg">
<g id="Icon">
<circle id="Ellipse 1" cx="30" cy="30" r="30" fill="#696A6F"/>
<path id="Pet" d="M21.6743 25.7255C22.1432 26.6566 22.2361 27.7323 21.934 28.73C21.632 29.7278 20.9579 30.5712 20.0513 31.0859C18.3283 31.6921 16.2607 30.2691 15.4354 27.9122C14.9657 26.9811 14.8721 25.9051 15.1738 24.9069C15.4755 23.9087 16.1495 23.0647 17.0563 22.5496C18.7793 21.9434 20.8469 23.3686 21.6743 25.7255ZM35.5455 42.4832C34.7936 42.4842 34.0489 42.3367 33.3542 42.049C32.6596 41.7614 32.0286 41.3393 31.4975 40.807C31.1002 40.41 30.5616 40.1871 30 40.1871C29.4384 40.1871 28.8998 40.41 28.5025 40.807C27.4265 41.8707 25.9733 42.4653 24.4603 42.461C22.9473 42.4566 21.4975 41.8536 20.4276 40.7838C19.3578 39.7139 18.7548 38.2641 18.7504 36.7511C18.7461 35.2381 19.3407 33.7849 20.4044 32.7089C21.6642 31.4482 23.16 30.448 24.8065 29.7657C26.4529 29.0833 28.2177 28.7321 30 28.7321C31.7823 28.7321 33.5471 29.0833 35.1935 29.7657C36.84 30.448 38.3358 31.4482 39.5956 32.7089C40.3961 33.5099 40.9412 34.5302 41.1619 35.6409C41.3826 36.7516 41.269 37.9028 40.8355 38.9489C40.402 39.9951 39.6681 40.8892 38.7265 41.5183C37.7849 42.1474 36.6779 42.4832 35.5455 42.4832ZM29.4257 21.8051C29.6958 24.6491 28.2281 27.1145 26.1499 27.3102C24.0716 27.5059 22.1678 25.3596 21.8998 22.5156C21.6296 19.6737 23.0974 17.2083 25.1756 17.0126C27.2538 16.8148 29.1555 18.9611 29.4257 21.8051ZM30.5743 21.8051C30.3042 24.6491 31.7719 27.1145 33.8502 27.3102C35.9284 27.5059 37.8301 25.3596 38.1002 22.5156C38.3704 19.6737 36.9026 17.2083 34.8244 17.0126C32.7462 16.8148 30.8424 18.9611 30.5743 21.8051ZM38.3257 25.7233C37.8556 26.6549 37.7619 27.7316 38.064 28.7304C38.3662 29.7291 39.041 30.5733 39.9487 31.088C41.6717 31.6921 43.7393 30.2691 44.5646 27.9122C45.0343 26.9811 45.1279 25.9051 44.8262 24.9069C44.5245 23.9087 43.8505 23.0647 42.9437 22.5496C41.2207 21.9434 39.1531 23.3665 38.3257 25.7233Z" fill="white"/>
</g>
</svg>
