<svg width="60" height="60" viewBox="0 0 60 60" fill="none" xmlns="http://www.w3.org/2000/svg">
<g id="Icon">
<circle id="Ellipse 1" cx="30" cy="30" r="30" fill="#F78B00"/>
<g id="Key">
<path id="Vector" d="M40.7974 28.8362C40.1024 28.8362 39.5368 29.4017 39.5368 30.0973C39.5372 30.7919 40.1028 31.3575 40.7979 31.3579C41.4929 31.3579 42.0585 30.7924 42.0585 30.0968C42.0585 29.4013 41.4929 28.8362 40.7974 28.8362Z" fill="white"/>
<path id="Vector_2" d="M37.9032 23C35.0331 23 32.4632 24.7114 31.3557 27.3587C31.2882 27.52 31.132 27.6237 30.9587 27.6237L17.4736 27.6232C16.1105 27.6237 15.0009 28.7334 15 30.0973C15 31.4607 16.1097 32.57 17.4732 32.57H17.5682C17.6822 32.57 17.7902 32.6147 17.8715 32.6964L19.1897 34.0173L20.5068 32.6964C20.5872 32.616 20.6977 32.57 20.8113 32.57H21.5468C21.6607 32.57 21.7687 32.6147 21.85 32.6964L22.8634 33.7119L23.1915 33.9927L23.192 33.9923L23.2169 34.0173L24.5344 32.6964C24.6144 32.616 24.7245 32.57 24.8389 32.57H25.5731C25.6866 32.57 25.7976 32.616 25.8776 32.6964L27.1951 34.0177L28.5129 32.6964C28.5929 32.616 28.703 32.57 28.8174 32.57H30.9585C31.1323 32.57 31.288 32.6732 31.3546 32.8332C32.4635 35.4818 35.0346 37.1932 37.9047 37.1932C39.7971 37.1932 41.5787 36.4543 42.9202 35.1123C44.2617 33.7704 45.0006 31.9894 45.0002 30.0968C45 26.1837 41.8163 23 37.9032 23ZM40.7979 32.2181C39.6284 32.2176 38.677 31.2662 38.6766 30.0976C38.6766 28.9277 39.628 27.9763 40.7974 27.9763C41.9673 27.9763 42.9188 28.9277 42.9188 30.0972C42.9188 31.2667 41.9673 32.2181 40.7979 32.2181Z" fill="white"/>
</g>
</g>
</svg>
