<svg width="98" height="100" viewBox="0 0 98 100" fill="none" xmlns="http://www.w3.org/2000/svg">
<g id="call icon">
<g id="Ellipse 5" filter="url(#filter0_d_993_3140)">
<ellipse cx="48.6355" cy="46" rx="28.6355" ry="30" fill="white"/>
<path d="M76.7711 46C76.7711 62.3146 64.1527 75.5 48.6355 75.5C33.1184 75.5 20.5 62.3146 20.5 46C20.5 29.6854 33.1184 16.5 48.6355 16.5C64.1527 16.5 76.7711 29.6854 76.7711 46Z" stroke="#1CA45C"/>
</g>
<g id="Group 45">
<path id="Vector" fill-rule="evenodd" clip-rule="evenodd" d="M47.9558 46.4655C52.7154 51.4505 53.7952 45.6834 56.8256 48.856C59.7472 51.916 61.4263 52.529 57.7247 56.4059C57.2611 56.7962 54.3152 61.4929 43.9623 50.6496C33.608 39.805 38.0884 36.7155 38.4611 36.2299C42.1717 32.3423 42.7467 34.1117 45.6683 37.1717C48.6988 40.3456 43.1963 41.4805 47.9558 46.4655Z" stroke="#1CA45C" stroke-width="1.5" stroke-linecap="round" stroke-linejoin="round"/>
<path id="Vector_2" opacity="0.4" d="M51.3242 38.4287C53.4373 38.8587 55.0886 40.5899 55.5002 42.8037" stroke="#1CA45C" stroke-width="1.5" stroke-linecap="round" stroke-linejoin="round"/>
</g>
</g>
<defs>
<filter id="filter0_d_993_3140" x="0" y="0" width="97.2715" height="100" filterUnits="userSpaceOnUse" color-interpolation-filters="sRGB">
<feFlood flood-opacity="0" result="BackgroundImageFix"/>
<feColorMatrix in="SourceAlpha" type="matrix" values="0 0 0 0 0 0 0 0 0 0 0 0 0 0 0 0 0 0 127 0" result="hardAlpha"/>
<feOffset dy="4"/>
<feGaussianBlur stdDeviation="10"/>
<feComposite in2="hardAlpha" operator="out"/>
<feColorMatrix type="matrix" values="0 0 0 0 0 0 0 0 0 0 0 0 0 0 0 0 0 0 0.15 0"/>
<feBlend mode="normal" in2="BackgroundImageFix" result="effect1_dropShadow_993_3140"/>
<feBlend mode="normal" in="SourceGraphic" in2="effect1_dropShadow_993_3140" result="shape"/>
</filter>
</defs>
</svg>
