<svg width="11" height="12" viewBox="0 0 11 12" fill="none" xmlns="http://www.w3.org/2000/svg">
<g clip-path="url(#clip0_1235_5242)">
<path d="M8.85629 2.25272L9.08245 2.93117C9.15207 3.14476 9.29145 3.32874 9.47821 3.45358L10.0504 3.83804C10.2425 3.96695 10.3845 4.15785 10.4528 4.37887C10.5212 4.59988 10.5116 4.83765 10.4258 5.05247L10.1996 5.60202C10.1012 5.84496 10.1012 6.11669 10.1996 6.35963L10.4258 6.89561C10.5114 7.1061 10.5236 7.33932 10.4604 7.5576C10.3972 7.77589 10.2623 7.96652 10.0775 8.09873L9.57093 8.46962C9.38442 8.60218 9.24878 8.79447 9.18648 9.01464L9.00329 9.65691C8.93951 9.88239 8.79922 10.0786 8.60649 10.2119C8.41377 10.3452 8.18065 10.4073 7.94717 10.3874L7.39762 10.3422C7.13754 10.3205 6.87936 10.4017 6.67846 10.5683L6.14926 10.9957C5.96885 11.1429 5.74318 11.2232 5.51039 11.2232C5.27759 11.2232 5.05192 11.1429 4.87151 10.9957L4.41921 10.6248C4.2379 10.4771 4.0108 10.3972 3.77694 10.3987H2.97184C2.7434 10.3993 2.52155 10.3221 2.34277 10.1799C2.16398 10.0377 2.0389 9.83892 1.98808 9.61621L1.84334 9.00107C1.79105 8.74743 1.64277 8.5238 1.42949 8.3769L0.940999 8.03541C0.755029 7.90975 0.6164 7.72554 0.54715 7.51205C0.477899 7.29856 0.482 7.06805 0.558803 6.85716L0.784954 6.2375C0.868624 6.01208 0.868624 5.76412 0.784954 5.5387L0.581418 4.99593C0.502345 4.7815 0.498441 4.54658 0.570343 4.32964C0.642245 4.1127 0.785691 3.92661 0.977183 3.80186L1.51316 3.45584C1.72039 3.32181 1.87157 3.11675 1.93833 2.87916L2.09663 2.30926C2.16006 2.08234 2.30076 1.88471 2.49443 1.75051C2.68809 1.61631 2.92254 1.55397 3.15728 1.57427L3.66386 1.61723C3.92451 1.63776 4.183 1.55673 4.38528 1.39108L4.86699 1.0021C5.04793 0.854221 5.27444 0.773438 5.50812 0.773438C5.74181 0.773438 5.96832 0.854221 6.14926 1.0021L6.5699 1.3549C6.77231 1.52196 7.03208 1.60314 7.29359 1.58105L7.82504 1.5426C8.05172 1.52789 8.27675 1.58995 8.46385 1.71878C8.65094 1.84761 8.78918 2.0357 8.85629 2.25272Z" stroke="#1CA45C"/>
<path d="M4.24322 5.06163C4.71409 5.06163 5.09581 4.67991 5.09581 4.20904C5.09581 3.73816 4.71409 3.35645 4.24322 3.35645C3.77234 3.35645 3.39062 3.73816 3.39062 4.20904C3.39062 4.67991 3.77234 5.06163 4.24322 5.06163Z" stroke="#1CA45C"/>
<path d="M6.84283 8.64366C7.3137 8.64366 7.69542 8.26194 7.69542 7.79107C7.69542 7.32019 7.3137 6.93848 6.84283 6.93848C6.37195 6.93848 5.99023 7.32019 5.99023 7.79107C5.99023 8.26194 6.37195 8.64366 6.84283 8.64366Z" stroke="#1CA45C"/>
<path d="M7.69644 3.78125L3.20508 8.27488" stroke="#1CA45C"/>
</g>
<defs>
<clipPath id="clip0_1235_5242">
<rect width="11" height="11" fill="white" transform="translate(0 0.5)"/>
</clipPath>
</defs>
</svg>
