<svg width="100" height="100" viewBox="0 0 100 100" fill="none" xmlns="http://www.w3.org/2000/svg">
<g id="fax icon">
<g id="Ellipse 5" filter="url(#filter0_d_993_3154)">
<circle cx="50" cy="46" r="30" fill="white"/>
<circle cx="50" cy="46" r="29.5" stroke="#1CA45C"/>
</g>
<g id="fax icon_2">
<path id="Vector" d="M58.2272 41.6741V37.6896L54.5369 34H54.3065H45.9107V40.969C45.3122 40.4716 44.5482 40.1658 43.7094 40.1658H42.932C41.9759 40.1651 41.1143 40.556 40.4967 41.1846C39.8782 41.8128 39.4996 42.6813 39.5 43.6352V54.0047C39.5004 56.2085 41.2915 57.9993 43.4954 58H56.6763C58.8801 57.9993 60.6709 56.2085 60.6716 54.0047V45.356C60.6709 43.7018 59.6623 42.2805 58.2272 41.6741ZM47.0237 35.113H54.0761L54.133 35.1698V38.1156H57.0795L57.1143 38.1504V41.386C56.9705 41.3701 56.8244 41.3607 56.6763 41.3607H47.0237V35.113ZM40.7238 43.6352C40.7238 42.4157 41.7125 41.427 42.932 41.427H43.7094C44.9289 41.427 45.9176 42.4157 45.9176 43.6352V49.2554C45.9176 50.4748 44.9289 51.4636 43.7094 51.4636H42.932C41.7125 51.4636 40.7238 50.4748 40.7238 49.2554V43.6352ZM59.4104 54.0047C59.4104 55.5147 58.1863 56.7389 56.6762 56.7389H43.4953C41.9853 56.7389 40.7611 55.5147 40.7611 54.0047V51.7632C41.3441 52.2686 42.1019 52.5765 42.932 52.5765H43.7094C45.5408 52.5765 47.0306 51.0867 47.0306 49.2554V48.3471V44.73V42.6218H56.6762C58.1863 42.6218 59.4104 43.846 59.4104 45.3561V54.0047Z" fill="#1CA45C"/>
<path id="Vector_2" d="M49.1956 52.1364C48.7974 52.1364 48.4746 52.4595 48.4746 52.8577C48.4746 53.2559 48.7974 53.5786 49.1956 53.5786C49.5937 53.5786 49.9169 53.2559 49.9169 52.8577C49.9169 52.4595 49.5937 52.1364 49.1956 52.1364Z" fill="#1CA45C"/>
<path id="Vector_3" d="M52.9046 52.1364C52.5064 52.1364 52.1836 52.4595 52.1836 52.8577C52.1836 53.2559 52.5064 53.5786 52.9046 53.5786C53.3027 53.5786 53.6259 53.2559 53.6259 52.8577C53.6259 52.4595 53.3027 52.1364 52.9046 52.1364Z" fill="#1CA45C"/>
<path id="Vector_4" d="M56.6155 52.1363C56.2174 52.1363 55.8945 52.4595 55.8945 52.8577C55.8945 53.2558 56.2173 53.5786 56.6155 53.5786C57.014 53.5786 57.3368 53.2558 57.3368 52.8577C57.3368 52.4595 57.014 52.1363 56.6155 52.1363Z" fill="#1CA45C"/>
<path id="Vector_5" d="M49.1956 49.7861C48.7974 49.7861 48.4746 50.1093 48.4746 50.5074C48.4746 50.9056 48.7974 51.2284 49.1956 51.2284C49.5937 51.2284 49.9169 50.9056 49.9169 50.5074C49.9169 50.1093 49.5937 49.7861 49.1956 49.7861Z" fill="#1CA45C"/>
<path id="Vector_6" d="M52.9046 49.7861C52.5064 49.7861 52.1836 50.1093 52.1836 50.5074C52.1836 50.9056 52.5064 51.2284 52.9046 51.2284C53.3027 51.2284 53.6259 50.9056 53.6259 50.5074C53.6259 50.1093 53.3027 49.7861 52.9046 49.7861Z" fill="#1CA45C"/>
<path id="Vector_7" d="M56.6155 49.7861C56.2174 49.7861 55.8945 50.1092 55.8945 50.5074C55.8945 50.9055 56.2173 51.2284 56.6155 51.2284C57.014 51.2284 57.3368 50.9055 57.3368 50.5074C57.3368 50.1092 57.014 49.7861 56.6155 49.7861Z" fill="#1CA45C"/>
<path id="Vector_8" d="M49.1956 47.4368C48.7974 47.4368 48.4746 47.7599 48.4746 48.1581C48.4746 48.5562 48.7974 48.8791 49.1956 48.8791C49.5937 48.8791 49.9169 48.5562 49.9169 48.1581C49.9169 47.7599 49.5937 47.4368 49.1956 47.4368Z" fill="#1CA45C"/>
<path id="Vector_9" d="M52.9046 47.4368C52.5064 47.4368 52.1836 47.7599 52.1836 48.1581C52.1836 48.5562 52.5064 48.8791 52.9046 48.8791C53.3027 48.8791 53.6259 48.5562 53.6259 48.1581C53.6259 47.7599 53.3027 47.4368 52.9046 47.4368Z" fill="#1CA45C"/>
<path id="Vector_10" d="M56.6155 47.4368C56.2174 47.4368 55.8945 47.76 55.8945 48.1581C55.8945 48.5563 56.2173 48.8791 56.6155 48.8791C57.014 48.8791 57.3368 48.5563 57.3368 48.1581C57.3368 47.76 57.014 47.4368 56.6155 47.4368Z" fill="#1CA45C"/>
<path id="Vector_11" d="M56.6499 44.8609H49.2302C48.8205 44.8609 48.4883 45.1932 48.4883 45.6029C48.4883 46.0127 48.8205 46.3449 49.2302 46.3449H56.65C57.0598 46.3449 57.392 46.0127 57.392 45.6029C57.3919 45.1932 57.0597 44.8609 56.6499 44.8609Z" fill="#1CA45C"/>
</g>
</g>
<defs>
<filter id="filter0_d_993_3154" x="0" y="0" width="100" height="100" filterUnits="userSpaceOnUse" color-interpolation-filters="sRGB">
<feFlood flood-opacity="0" result="BackgroundImageFix"/>
<feColorMatrix in="SourceAlpha" type="matrix" values="0 0 0 0 0 0 0 0 0 0 0 0 0 0 0 0 0 0 127 0" result="hardAlpha"/>
<feOffset dy="4"/>
<feGaussianBlur stdDeviation="10"/>
<feComposite in2="hardAlpha" operator="out"/>
<feColorMatrix type="matrix" values="0 0 0 0 0 0 0 0 0 0 0 0 0 0 0 0 0 0 0.15 0"/>
<feBlend mode="normal" in2="BackgroundImageFix" result="effect1_dropShadow_993_3154"/>
<feBlend mode="normal" in="SourceGraphic" in2="effect1_dropShadow_993_3154" result="shape"/>
</filter>
</defs>
</svg>
