<svg width="20" height="20" viewBox="0 0 20 20" fill="none" xmlns="http://www.w3.org/2000/svg">
<path d="M18.125 2.5H1.875C0.839375 2.5 0 3.33938 0 4.375V14.375C0 15.4106 0.839375 16.25 1.875 16.25H7.5V18.125H6.5625C6.39 18.125 6.25 18.265 6.25 18.4375C6.25 18.61 6.39 18.75 6.5625 18.75H13.4375C13.61 18.75 13.75 18.61 13.75 18.4375C13.75 18.265 13.61 18.125 13.4375 18.125H12.5V16.25H18.125C19.1606 16.25 20 15.4106 20 14.375V4.375C20 3.33938 19.1606 2.5 18.125 2.5ZM11.875 18.125H8.125V16.25H11.875V18.125ZM19.375 14.375C19.375 15.0656 18.8156 15.625 18.125 15.625H1.875C1.18438 15.625 0.625 15.0656 0.625 14.375V4.375C0.625 3.68438 1.18438 3.125 1.875 3.125H18.125C18.8156 3.125 19.375 3.68438 19.375 4.375V14.375ZM16.1281 5.64375C15.6394 5.5475 15.2062 5.83125 15.0575 6.25H11.25V5.625H8.75V6.25H4.9425C4.79375 5.83125 4.36 5.5475 3.87188 5.64375C3.51375 5.71437 3.22187 6.00125 3.14687 6.35875C3.01875 6.96562 3.47813 7.5 4.0625 7.5C4.47 7.5 4.81375 7.23812 4.9425 6.875H8.75V7.015C6.0075 7.57562 3.90937 9.92625 3.75875 12.7937C3.74937 12.9731 3.89188 13.125 4.07188 13.125C4.23625 13.125 4.37437 12.9975 4.3825 12.8331C4.51312 10.2925 6.34125 8.20188 8.75 7.6525V8.125H11.25V7.65188C13.6588 8.20188 15.4869 10.2925 15.6175 12.8325C15.6263 12.9975 15.7638 13.125 15.9281 13.125C16.1081 13.125 16.2506 12.9731 16.2412 12.7937C16.0906 9.92625 13.9925 7.57562 11.25 7.015V6.875H15.0575C15.1869 7.23812 15.53 7.5 15.9375 7.5C16.5219 7.5 16.9812 6.96562 16.8538 6.35875C16.7781 6.00125 16.4862 5.71437 16.1281 5.64375ZM4.0625 6.875C3.89 6.875 3.75 6.735 3.75 6.5625C3.75 6.39 3.89 6.25 4.0625 6.25C4.235 6.25 4.375 6.39 4.375 6.5625C4.375 6.735 4.235 6.875 4.0625 6.875ZM10.625 7.5H9.375V6.25H10.625V7.5ZM15.9375 6.875C15.765 6.875 15.625 6.735 15.625 6.5625C15.625 6.39 15.765 6.25 15.9375 6.25C16.11 6.25 16.25 6.39 16.25 6.5625C16.25 6.735 16.11 6.875 15.9375 6.875Z" fill="#40445A"/>
</svg>
