<svg width="24" height="20" viewBox="0 0 24 20" fill="none" xmlns="http://www.w3.org/2000/svg">
<g id="improve icon">
<g id="Layer_5_45_">
<g id="Group">
<g id="Group_2">
<path id="Vector" d="M7.43099 18.9384C7.43099 19.5223 6.95327 20 6.3694 20H1.98151C1.39764 20 0.919922 19.5223 0.919922 18.9384V14.1259C0.919922 13.542 1.39764 13.0643 1.98151 13.0643H6.3694C6.95327 13.0643 7.43099 13.542 7.43099 14.1259V18.9384Z" fill="#E54032"/>
</g>
<g id="Group_3">
<path id="Vector_2" d="M15.2357 18.9384C15.2357 19.5223 14.758 20 14.1741 20H9.7862C9.20232 20 8.72461 19.5223 8.72461 18.9384V11.5781C8.72461 10.9942 9.20232 10.5165 9.7862 10.5165H14.1741C14.758 10.5165 15.2357 10.9942 15.2357 11.5781V18.9384Z" fill="#E54032"/>
</g>
<g id="Group_4">
<path id="Vector_3" d="M23.0365 18.9384C23.0365 19.5222 22.5587 20 21.9749 20H17.587C17.0031 20 16.5254 19.5222 16.5254 18.9384V8.74713C16.5254 8.16326 17.0031 7.68555 17.587 7.68555H21.9749C22.5587 7.68555 23.0365 8.16326 23.0365 8.74713V18.9384Z" fill="#E54032"/>
</g>
<path id="Vector_4" d="M22.118 0.0198028L17.3497 1.1799C16.9713 1.27148 16.8871 1.57163 17.1623 1.84686L18.1798 2.84058C18.2652 2.93796 18.1639 3.06748 18.0835 3.12233C17.4428 3.5597 16.426 4.20146 15.0205 4.93474C7.36893 8.9268 1.06148 8.68193 0.966645 8.67761C0.460339 8.65192 0.0274241 9.04195 0.00123832 9.5491C-0.0248767 10.0565 0.365221 10.4892 0.87266 10.5153C0.909957 10.5172 1.06162 10.5241 1.31662 10.5241C2.95195 10.5241 8.82635 10.2419 15.8717 6.56618C17.5387 5.69646 18.6942 4.94634 19.3688 4.47146C19.4642 4.4043 19.6305 4.28851 19.7839 4.44471L20.8968 5.55754C21.172 5.83277 21.4707 5.74805 21.5607 5.36935L22.6425 0.541891C22.7324 0.163117 22.4963 -0.0717767 22.118 0.0198028Z" fill="#E54032"/>
</g>
</g>
</g>
</svg>
