<svg width="16" height="20" viewBox="0 0 16 20" fill="none" xmlns="http://www.w3.org/2000/svg">
<path id="Vector" d="M8.07125 -0.00686646C3.97188 -0.00686646 0.5 3.48501 0.5 7.62063C0.5 11.9519 4.52438 16.3813 7.23125 19.4944C7.24188 19.5069 7.67938 19.9925 8.21813 19.9925H8.26562C8.805 19.9925 9.23938 19.5069 9.25 19.4944C11.79 16.5744 15.5 11.7588 15.5 7.62063C15.5 3.48438 12.7919 -0.00686646 8.07125 -0.00686646ZM8.32187 18.6556C8.3 18.6775 8.26813 18.7019 8.24 18.7225C8.21125 18.7025 8.18 18.6775 8.15687 18.6556L7.83 18.2794C5.26375 15.3356 1.74938 11.3038 1.74938 7.62001C1.74938 4.16251 4.64438 1.24188 8.07063 1.24188C12.3388 1.24188 14.2494 4.44501 14.2494 7.62001C14.2494 10.4163 12.255 14.13 8.32187 18.6556ZM8.02187 3.77751C5.95125 3.77751 4.27187 5.45626 4.27187 7.52751C4.27187 9.59876 5.95125 11.2775 8.02187 11.2775C10.0925 11.2775 11.7719 9.59813 11.7719 7.52751C11.7719 5.45688 10.0931 3.77751 8.02187 3.77751ZM8.02187 10.0275C6.64313 10.0275 5.49312 8.87876 5.49312 7.50001C5.49312 6.12126 6.61438 5.00001 7.99312 5.00001C9.3725 5.00001 10.4931 6.12126 10.4931 7.50001C10.4938 8.87876 9.40125 10.0275 8.02187 10.0275Z" fill="#808080"/>
</svg>
