<svg width="100" height="100" viewBox="0 0 100 100" fill="none" xmlns="http://www.w3.org/2000/svg">
<g id="location icon">
<g id="Ellipse 5" filter="url(#filter0_d_993_3172)">
<circle cx="50" cy="46" r="30" fill="white"/>
<circle cx="50" cy="46" r="29.5" stroke="#1CA45C"/>
</g>
<g id="XMLID_20_">
<g id="Group">
<g id="Group_2">
<path id="Vector" d="M50.1489 31C43.45 31 38 36.45 38 43.149C38 45.9131 38.9059 48.5163 40.6197 50.6773C42.8388 53.4752 49.2918 60.1185 49.5655 60.3999L50.1489 61L50.7323 60.3999C51.006 60.1185 57.461 53.4737 59.6805 50.6749C61.3928 48.5157 62.2978 45.9133 62.2978 43.149C62.2978 36.45 56.8479 31 50.1489 31ZM58.4055 49.6636C56.6187 51.9167 51.8206 56.9286 50.149 58.6621C48.4775 56.9287 43.6812 51.9182 41.8948 49.666C40.4114 47.7957 39.6275 45.5422 39.6275 43.149C39.6275 37.3474 44.3474 32.6275 50.1489 32.6275C55.9504 32.6275 60.6704 37.3474 60.6704 43.149C60.6704 45.5423 59.8871 47.795 58.4055 49.6636Z" fill="#1CA45C"/>
<path id="Vector_2" d="M50.1504 35.8225C46.1851 35.8225 42.959 39.0486 42.959 43.0139C42.959 46.9792 46.185 50.2053 50.1504 50.2053C54.1158 50.2053 57.3418 46.9793 57.3418 43.0139C57.3418 39.0485 54.1158 35.8225 50.1504 35.8225ZM50.1504 48.5778C47.0825 48.5778 44.5865 46.0819 44.5865 43.0139C44.5865 39.9459 47.0824 37.45 50.1504 37.45C53.2184 37.45 55.7143 39.9459 55.7143 43.0139C55.7144 46.0818 53.2183 48.5778 50.1504 48.5778Z" fill="#1CA45C"/>
<path id="Vector_3" d="M49.8498 43.5573L47.8063 41.9315L46.793 43.2051L50.1041 45.8393L53.6303 41.4504L52.3614 40.4312L49.8498 43.5573Z" fill="#1CA45C"/>
</g>
</g>
</g>
</g>
<defs>
<filter id="filter0_d_993_3172" x="0" y="0" width="100" height="100" filterUnits="userSpaceOnUse" color-interpolation-filters="sRGB">
<feFlood flood-opacity="0" result="BackgroundImageFix"/>
<feColorMatrix in="SourceAlpha" type="matrix" values="0 0 0 0 0 0 0 0 0 0 0 0 0 0 0 0 0 0 127 0" result="hardAlpha"/>
<feOffset dy="4"/>
<feGaussianBlur stdDeviation="10"/>
<feComposite in2="hardAlpha" operator="out"/>
<feColorMatrix type="matrix" values="0 0 0 0 0 0 0 0 0 0 0 0 0 0 0 0 0 0 0.15 0"/>
<feBlend mode="normal" in2="BackgroundImageFix" result="effect1_dropShadow_993_3172"/>
<feBlend mode="normal" in="SourceGraphic" in2="effect1_dropShadow_993_3172" result="shape"/>
</filter>
</defs>
</svg>
