<svg width="100" height="100" viewBox="0 0 100 100" fill="none" xmlns="http://www.w3.org/2000/svg">
<g id="mail icon">
<g id="Ellipse 5" filter="url(#filter0_d_993_3148)">
<circle cx="50" cy="46" r="30" fill="white"/>
<circle cx="50" cy="46" r="29.5" stroke="#1CA45C"/>
</g>
<path id="Vector" d="M62.6899 35.5H37.3101C36.038 35.5 35 36.538 35 37.8101V55.6835C35 56.9557 36.038 57.9937 37.3101 57.9937H62.6899C63.962 57.9937 65 56.9557 65 55.6835V37.8101C65 36.538 63.962 35.5 62.6899 35.5ZM62.3544 37.2089L50.1582 47.6392L37.962 37.2089H62.3544ZM63.2911 55.6835C63.2911 56.0127 63.019 56.2848 62.6899 56.2848H37.3101C36.981 56.2848 36.7089 56.0127 36.7089 55.6835V38.3861L49.6013 49.4114C49.6076 49.4177 49.6203 49.4241 49.6266 49.4304C49.6329 49.4367 49.6456 49.443 49.6519 49.4494C49.6709 49.462 49.6835 49.4747 49.7025 49.481C49.7089 49.4873 49.7152 49.4873 49.7215 49.4937C49.7468 49.5063 49.7722 49.519 49.7975 49.5316C49.8038 49.5316 49.8101 49.538 49.8165 49.538C49.8354 49.5443 49.8544 49.557 49.8797 49.5633C49.8861 49.5633 49.8987 49.5696 49.9051 49.5696C49.9241 49.5759 49.943 49.5823 49.962 49.5823C49.9684 49.5823 49.981 49.5886 49.9873 49.5886C50.0063 49.5949 50.0316 49.5949 50.0506 49.6013C50.057 49.6013 50.0633 49.6013 50.0696 49.6013C50.0949 49.6013 50.1266 49.6076 50.1519 49.6076C50.1772 49.6076 50.2089 49.6076 50.2342 49.6013C50.2405 49.6013 50.2468 49.6013 50.2532 49.6013C50.2722 49.6013 50.2975 49.5949 50.3165 49.5886C50.3228 49.5886 50.3354 49.5823 50.3418 49.5823C50.3608 49.5759 50.3797 49.5696 50.3987 49.5696C50.4051 49.5696 50.4177 49.5633 50.4241 49.5633C50.443 49.557 50.462 49.5506 50.4873 49.538C50.4937 49.538 50.5 49.5316 50.5063 49.5316C50.5316 49.519 50.557 49.5063 50.5823 49.4937C50.5886 49.4873 50.5949 49.4873 50.6013 49.481C50.6203 49.4684 50.6329 49.462 50.6519 49.4494C50.6582 49.443 50.6709 49.4367 50.6772 49.4304C50.6835 49.4241 50.6962 49.4177 50.7025 49.4114L63.2911 38.6582V55.6835Z" fill="#1CA45C"/>
</g>
<defs>
<filter id="filter0_d_993_3148" x="0" y="0" width="100" height="100" filterUnits="userSpaceOnUse" color-interpolation-filters="sRGB">
<feFlood flood-opacity="0" result="BackgroundImageFix"/>
<feColorMatrix in="SourceAlpha" type="matrix" values="0 0 0 0 0 0 0 0 0 0 0 0 0 0 0 0 0 0 127 0" result="hardAlpha"/>
<feOffset dy="4"/>
<feGaussianBlur stdDeviation="10"/>
<feComposite in2="hardAlpha" operator="out"/>
<feColorMatrix type="matrix" values="0 0 0 0 0 0 0 0 0 0 0 0 0 0 0 0 0 0 0.15 0"/>
<feBlend mode="normal" in2="BackgroundImageFix" result="effect1_dropShadow_993_3148"/>
<feBlend mode="normal" in="SourceGraphic" in2="effect1_dropShadow_993_3148" result="shape"/>
</filter>
</defs>
</svg>
