<svg width="20" height="20" viewBox="0 0 20 20" fill="none" xmlns="http://www.w3.org/2000/svg">
<path d="M18.9486 1.43164H1.05145C0.47168 1.43164 0 1.90332 0 2.48313V17.5167C0 18.0964 0.47168 18.5681 1.05145 18.5681H18.9486C19.5283 18.5681 20 18.0964 20 17.5167V2.48313C20 1.90332 19.5283 1.43164 18.9486 1.43164ZM4.96645 2.10277H17.8971V2.8634H4.96645V2.10277ZM3.53469 2.10277H4.29531V2.8634H3.53469V2.10277ZM2.10289 2.10277H2.86352V2.8634H2.10289V2.10277ZM0.671133 2.48313C0.671133 2.2734 0.841719 2.10281 1.05145 2.10281H1.43176V2.86344H0.671133V2.48313ZM19.3289 17.5167C19.3289 17.7264 19.1583 17.897 18.9486 17.897H1.05145C0.841719 17.897 0.671133 17.7264 0.671133 17.5167V3.53457H19.3289V17.5167ZM19.3289 2.8634H18.5682V2.10277H18.9486C19.1583 2.10277 19.3289 2.27336 19.3289 2.48309V2.8634Z" fill="#40445A"/>
<path d="M18.2325 4.29492H1.76723C1.58191 4.29492 1.43164 4.44516 1.43164 4.63051C1.43164 4.81582 1.58187 4.96609 1.76723 4.96609H18.2325C18.4179 4.96609 18.5681 4.81586 18.5681 4.63051C18.5681 4.44516 18.4179 4.29492 18.2325 4.29492Z" fill="#40445A"/>
<path d="M12.8637 6.44336H12.1478C11.8389 6.44336 11.5768 6.64641 11.4873 6.9259C8.60852 8.60625 5.49016 8.89074 4.59258 8.93793C4.22523 8.9573 3.9375 9.26137 3.9375 9.63027V11.0864C3.9375 11.4553 4.22523 11.7593 4.59258 11.7787C4.77145 11.7881 5.03891 11.807 5.37473 11.8445L6.38305 15.5515C6.46496 15.8527 6.74016 16.063 7.05227 16.063H8.20918C8.20953 16.063 8.20988 16.0631 8.21027 16.0631C8.2107 16.0631 8.21117 16.063 8.21156 16.063H8.5684C8.75371 16.063 8.90398 15.9128 8.90398 15.7274C8.90398 15.5421 8.75375 15.3918 8.5684 15.3918H8.4668L7.60906 12.2469C8.79363 12.542 10.1657 13.0193 11.4873 13.7907C11.5768 14.0702 11.839 14.2732 12.1478 14.2732H12.8637C13.2461 14.2732 13.5572 13.9621 13.5572 13.5797V7.13672C13.5571 6.75445 13.2461 6.44336 12.8637 6.44336ZM5.36926 11.169C5.05375 11.1352 4.80098 11.1176 4.62781 11.1084C4.61648 11.1079 4.60863 11.0988 4.60863 11.0864V9.63027C4.60863 9.61789 4.61652 9.60879 4.62781 9.60816C4.80098 9.59902 5.05375 9.58137 5.36926 9.54762V11.169ZM7.77102 15.3919H7.05219C7.04211 15.3919 7.0332 15.3851 7.03059 15.3754L6.09652 11.9412C6.33617 11.9786 6.59434 12.0242 6.86766 12.0796L7.77102 15.3919ZM12.886 13.5798C12.886 13.5921 12.876 13.6022 12.8636 13.6022H12.1478C12.1354 13.6022 12.1254 13.5921 12.1254 13.5798V9.6425C12.1254 9.45719 11.9752 9.30691 11.7898 9.30691C11.6045 9.30691 11.4542 9.45715 11.4542 9.6425V13.0025C9.46727 11.9262 7.42106 11.4578 6.04035 11.2545V9.46223C7.42106 9.25887 9.46731 8.79047 11.4542 7.71418V8.21074C11.4542 8.39605 11.6045 8.54633 11.7898 8.54633C11.9751 8.54633 12.1254 8.39609 12.1254 8.21074V7.13687C12.1254 7.12453 12.1354 7.11449 12.1478 7.11449H12.8637C12.876 7.11449 12.8861 7.12453 12.8861 7.13687V13.5798H12.886Z" fill="#40445A"/>
<path d="M16.8016 10.0225H14.6539C14.4686 10.0225 14.3184 10.1727 14.3184 10.358C14.3184 10.5434 14.4686 10.6936 14.6539 10.6936H16.8016C16.9869 10.6936 17.1372 10.5434 17.1372 10.358C17.1372 10.1727 16.9869 10.0225 16.8016 10.0225Z" fill="#40445A"/>
<path d="M16.3859 8.06058C16.303 7.8948 16.1015 7.82762 15.9357 7.91051L14.5039 8.6264C14.3382 8.70929 14.271 8.91082 14.3539 9.0766C14.4127 9.19414 14.5311 9.26215 14.6543 9.26215C14.7047 9.26215 14.7559 9.25074 14.8041 9.22668L16.2358 8.51078C16.4016 8.42789 16.4688 8.22637 16.3859 8.06058Z" fill="#40445A"/>
<path d="M16.2358 12.2055L14.8041 11.4896C14.6383 11.4067 14.4368 11.4739 14.3539 11.6397C14.271 11.8055 14.3382 12.007 14.5039 12.0899L15.9357 12.8058C15.9839 12.8298 16.0351 12.8412 16.0855 12.8412C16.2086 12.8412 16.3271 12.7732 16.3859 12.6556C16.4688 12.4899 16.4016 12.2883 16.2358 12.2055Z" fill="#40445A"/>
</svg>
