<svg width="14" height="14" viewBox="0 0 14 14" fill="none" xmlns="http://www.w3.org/2000/svg">
<g clip-path="url(#clip0_1243_5770)">
<path d="M13.9999 6.4137L13.9999 1.89022C13.9999 0.84793 13.152 0 12.1097 0H7.58625C7.50889 0 7.43474 0.0307344 7.38005 0.0854219L6.49584 0.969637C6.34465 0.957059 6.1921 0.946887 6.03837 0.939449C4.09298 0.845223 2.43291 1.18456 1.80925 1.80389C1.55941 2.05204 1.51514 2.30152 1.52195 2.46706C1.54667 3.0643 2.26127 3.6015 3.49937 3.96607L0.551687 6.91378C0.195918 7.26955 0 7.74424 0 8.25037C0 8.75654 0.195945 9.2312 0.551687 9.58691L4.38142 13.4167H4.08332C3.92227 13.4167 3.79165 13.5472 3.79165 13.7084C3.79165 13.8694 3.92224 14 4.08332 14H9.91659C10.0776 14 10.2083 13.8694 10.2083 13.7084C10.2083 13.5473 10.0777 13.4167 9.91659 13.4167H7.1178L13.9145 6.61998C13.9692 6.56523 13.9999 6.49105 13.9999 6.4137ZM2.10481 2.44295C2.10375 2.41672 2.10044 2.33685 2.22034 2.21777C2.62251 1.81836 3.95768 1.43279 5.94603 1.51944L3.97461 3.49087C2.6221 3.1506 2.1146 2.67944 2.10481 2.44295ZM6.67371 13.0358C6.42813 13.2814 6.0999 13.4166 5.7496 13.4166C5.39924 13.4166 5.07106 13.2814 4.82552 13.0358L0.964141 9.1744C0.718539 8.92885 0.58327 8.60068 0.58327 8.25035C0.58327 7.89999 0.718539 7.57181 0.964141 7.32624L6.71428 1.57615C7.55825 1.66441 8.33744 1.83419 8.95789 2.06888C9.36939 2.22455 9.6469 2.3853 9.821 2.52995C9.61081 2.74107 9.48062 3.03196 9.48062 3.35275C9.48062 3.44323 9.49132 3.53125 9.51092 3.61586C9.51223 3.62302 9.51398 3.63013 9.51587 3.63721C9.51661 3.64025 9.51729 3.64331 9.51809 3.64634C9.51814 3.64659 9.51822 3.64684 9.51833 3.64705C9.64906 4.14832 10.1056 4.51937 10.6473 4.51937C11.2905 4.51937 11.8139 3.99604 11.8139 3.35273C11.8139 2.70941 11.2906 2.18602 10.6473 2.18602C10.5438 2.18602 10.4435 2.19972 10.3479 2.22513C10.1009 1.9641 9.70312 1.72709 9.16426 1.52327C8.615 1.31551 7.95369 1.1556 7.23715 1.05328L7.70705 0.583352H12.1096C12.8303 0.583352 13.4165 1.16963 13.4165 1.89025L13.4166 6.29289L6.67371 13.0358ZM10.6452 2.85636C10.644 2.82737 10.641 2.79858 10.6367 2.76989C10.6402 2.76984 10.6437 2.76935 10.6473 2.76935C10.9689 2.76935 11.2305 3.03105 11.2305 3.3527C11.2305 3.67432 10.9689 3.936 10.6473 3.936C10.4467 3.936 10.2695 3.8342 10.1644 3.67957C10.5712 3.3906 10.6544 3.07997 10.6452 2.85636Z" fill="#40445A"/>
<path d="M12.5088 2.4646C12.3551 2.51275 12.2696 2.6764 12.3177 2.8301C12.3707 2.99941 12.3976 3.17526 12.3976 3.35281C12.3976 4.31774 11.6127 5.10272 10.6477 5.10272C9.68279 5.10272 8.89781 4.31774 8.89781 3.35281C8.89781 3.19172 8.76724 3.06113 8.60613 3.06113C8.44505 3.06113 8.31445 3.1917 8.31445 3.35281C8.31445 4.63936 9.36114 5.68605 10.6477 5.68605C11.9342 5.68605 12.9809 4.63936 12.9809 3.35281C12.9809 3.11606 12.9451 2.88151 12.8743 2.65573C12.8262 2.502 12.6625 2.41642 12.5088 2.4646Z" fill="#40445A"/>
<path d="M12.1198 2.2305C12.1925 2.2305 12.2653 2.20349 12.3219 2.14916C12.438 2.03757 12.4417 1.85294 12.3301 1.73676C12.2823 1.68691 12.2319 1.63892 12.1805 1.59416C12.059 1.48837 11.8747 1.50114 11.769 1.62262C11.6632 1.74411 11.6759 1.92833 11.7974 2.03412C11.8359 2.06756 11.8735 2.10352 11.9095 2.14087C11.9667 2.20051 12.0432 2.2305 12.1198 2.2305Z" fill="#40445A"/>
<path d="M8.51004 8.96759C8.56382 8.89215 8.61195 8.8146 8.65285 8.73601C8.91409 8.23428 8.86594 7.61875 8.53019 7.16793C8.22626 6.75983 7.75598 6.57157 7.27221 6.66437C6.92585 6.73079 6.59565 6.91815 6.2763 7.09935C6.20296 7.14097 6.13367 7.18029 6.064 7.21835C5.637 7.45135 5.22933 7.46781 4.97342 7.26235C4.76225 7.09277 4.69197 6.79893 4.78535 6.47635C4.81234 6.38325 4.86019 6.29241 4.92327 6.20573L5.4057 6.68821C5.46266 6.74514 5.53731 6.77364 5.61195 6.77364C5.6866 6.77364 5.7612 6.74517 5.81815 6.68821C5.93204 6.57435 5.93207 6.38968 5.81815 6.27573L5.35293 5.81043C5.5629 5.67157 5.80188 5.56584 6.02299 5.51153C6.17942 5.47309 6.27504 5.31509 6.23657 5.15863C6.19809 5.0022 6.04013 4.90652 5.88367 4.94505C5.57252 5.02153 5.22903 5.17411 4.932 5.38941L4.70912 5.16653C4.59526 5.05268 4.41061 5.05265 4.29664 5.16653C4.18272 5.28039 4.18272 5.46507 4.29661 5.57902L4.50623 5.78866C4.37922 5.94673 4.28048 6.12255 4.225 6.3141C4.06627 6.86231 4.21308 7.39992 4.60819 7.71719C5.05395 8.07509 5.70263 8.08004 6.34337 7.73039C6.36577 7.71817 6.38819 7.70554 6.41064 7.6931L7.70036 8.98282C7.41992 9.20326 7.10161 9.31111 6.90373 9.24844C6.75014 9.19977 6.58624 9.28486 6.5376 9.43845C6.48895 9.59201 6.57402 9.75594 6.72758 9.80455C6.82591 9.83567 6.92787 9.85019 7.03162 9.85019C7.40097 9.85016 7.79199 9.66633 8.11336 9.39579L8.42136 9.70382C8.47832 9.76078 8.55297 9.78924 8.62756 9.78924C8.70224 9.78924 8.77686 9.76075 8.83379 9.70382C8.94767 9.58993 8.94767 9.40528 8.83381 9.29134L8.51004 8.96759ZM8.13548 8.46654C8.12118 8.49402 8.10573 8.52085 8.08976 8.54729L6.9431 7.4006C7.09519 7.32486 7.24405 7.26375 7.38208 7.23728C7.64488 7.18691 7.89275 7.2886 8.06239 7.51635C8.26542 7.78896 8.29408 8.16196 8.13548 8.46654Z" fill="#40445A"/>
<path d="M3.73231 9.94583C3.61845 9.83192 3.43377 9.83184 3.31983 9.94572C3.20592 10.0596 3.20589 10.2443 3.31975 10.3582L3.43908 10.4776C3.49603 10.5346 3.57074 10.5631 3.64539 10.5631C3.72001 10.5631 3.79463 10.5347 3.85156 10.4777C3.96547 10.3639 3.96555 10.1792 3.85167 10.0652L3.73231 9.94583Z" fill="#40445A"/>
<path d="M6.36777 11.3438L5.74903 11.9626L4.51159 10.7251C4.3977 10.6112 4.21303 10.6112 4.09911 10.725C3.9852 10.8389 3.9852 11.0236 4.09908 11.1375L5.33658 12.375C5.4503 12.4887 5.59965 12.5456 5.74906 12.5456C5.89841 12.5456 6.04782 12.4888 6.16157 12.375L6.7803 11.7563C6.89419 11.6424 6.89419 11.4577 6.7803 11.3438C6.66636 11.2299 6.48168 11.2299 6.36777 11.3438Z" fill="#40445A"/>
</g>
<defs>
<clipPath id="clip0_1243_5770">
<rect width="14" height="14" fill="white"/>
</clipPath>
</defs>
</svg>
