<svg width="15" height="16" viewBox="0 0 15 16" fill="none" xmlns="http://www.w3.org/2000/svg">
<g clip-path="url(#clip0_1642_1648)">
<path d="M2.67773 0.931594C2.67773 0.726133 2.84429 0.55957 3.04976 0.55957C3.25523 0.55957 3.42178 0.726133 3.42178 0.931594V3.16374C3.42178 3.36921 3.25523 3.53576 3.04976 3.53576C2.84429 3.53576 2.67773 3.36921 2.67773 3.16374V0.931594Z" fill="#40445A"/>
<path d="M8.63086 0.931594C8.63086 0.726133 8.79741 0.55957 9.00288 0.55957C9.20835 0.55957 9.37491 0.726133 9.37491 0.931594V3.16374C9.37491 3.36921 9.20835 3.53576 9.00288 3.53576C8.79741 3.53576 8.63086 3.36921 8.63086 3.16374V0.931594Z" fill="#40445A"/>
<path fill-rule="evenodd" clip-rule="evenodd" d="M3.42169 7.62784H2.67764V8.37188H3.42169V7.62784ZM2.67764 6.88379C2.2667 6.88379 1.93359 7.2169 1.93359 7.62784V8.37188C1.93359 8.78282 2.2667 9.11593 2.67764 9.11593H3.42169C3.83263 9.11593 4.16574 8.78282 4.16574 8.37188V7.62784C4.16574 7.2169 3.83263 6.88379 3.42169 6.88379H2.67764Z" fill="#40445A"/>
<path fill-rule="evenodd" clip-rule="evenodd" d="M6.39825 7.62784H5.6542V8.37188H6.39825V7.62784ZM5.6542 6.88379C5.24327 6.88379 4.91016 7.2169 4.91016 7.62784V8.37188C4.91016 8.78282 5.24327 9.11593 5.6542 9.11593H6.39825C6.80919 9.11593 7.1423 8.78282 7.1423 8.37188V7.62784C7.1423 7.2169 6.80919 6.88379 6.39825 6.88379H5.6542Z" fill="#40445A"/>
<path fill-rule="evenodd" clip-rule="evenodd" d="M9.37481 7.62784H8.63077V8.37188H9.37481V7.62784ZM8.63077 6.88379C8.21983 6.88379 7.88672 7.2169 7.88672 7.62784V8.37188C7.88672 8.78282 8.21983 9.11593 8.63077 9.11593H9.37481C9.78575 9.11593 10.1189 8.78282 10.1189 8.37188V7.62784C10.1189 7.2169 9.78575 6.88379 9.37481 6.88379H8.63077Z" fill="#40445A"/>
<path fill-rule="evenodd" clip-rule="evenodd" d="M3.42169 10.6044H2.67764V11.3484H3.42169V10.6044ZM2.67764 9.86035C2.2667 9.86035 1.93359 10.1935 1.93359 10.6044V11.3484C1.93359 11.7594 2.2667 12.0925 2.67764 12.0925H3.42169C3.83263 12.0925 4.16574 11.7594 4.16574 11.3484V10.6044C4.16574 10.1935 3.83263 9.86035 3.42169 9.86035H2.67764Z" fill="#40445A"/>
<path fill-rule="evenodd" clip-rule="evenodd" d="M6.39825 10.6044H5.6542V11.3484H6.39825V10.6044ZM5.6542 9.86035C5.24327 9.86035 4.91016 10.1935 4.91016 10.6044V11.3484C4.91016 11.7594 5.24327 12.0925 5.6542 12.0925H6.39825C6.80919 12.0925 7.1423 11.7594 7.1423 11.3484V10.6044C7.1423 10.1935 6.80919 9.86035 6.39825 9.86035H5.6542Z" fill="#40445A"/>
<path fill-rule="evenodd" clip-rule="evenodd" d="M1.56231 2.7919H10.4909C10.9018 2.7919 11.2349 3.12501 11.2349 3.53595V9.48833C11.4919 9.48833 11.7412 9.52088 11.979 9.58208V3.53595C11.979 2.71409 11.3127 2.04785 10.4909 2.04785H1.56231C0.740461 2.04785 0.0742188 2.71409 0.0742188 3.53595V12.4645C0.0742188 13.2864 0.740461 13.9526 1.56231 13.9526H8.65692C8.5237 13.7223 8.42046 13.4725 8.35249 13.2086H1.56231C1.15139 13.2086 0.818266 12.8755 0.818266 12.4645V3.53595C0.818266 3.12501 1.15139 2.7919 1.56231 2.7919Z" fill="#40445A"/>
<path fill-rule="evenodd" clip-rule="evenodd" d="M11.608 6.13956H0.447266V5.39551H11.608V6.13956Z" fill="#40445A"/>
<path fill-rule="evenodd" clip-rule="evenodd" d="M11.236 14.6966C12.4687 14.6966 13.4681 13.6972 13.4681 12.4645C13.4681 11.2317 12.4687 10.2323 11.236 10.2323C10.0032 10.2323 9.00381 11.2317 9.00381 12.4645C9.00381 13.6972 10.0032 14.6966 11.236 14.6966ZM11.236 15.4407C12.8797 15.4407 14.2121 14.1082 14.2121 12.4645C14.2121 10.8208 12.8797 9.48828 11.236 9.48828C9.59224 9.48828 8.25977 10.8208 8.25977 12.4645C8.25977 14.1082 9.59224 15.4407 11.236 15.4407Z" fill="#40445A"/>
<path fill-rule="evenodd" clip-rule="evenodd" d="M11.2353 10.6709C11.4408 10.6709 11.6073 10.8375 11.6073 11.0429V12.6419L12.5193 13.275C12.6881 13.3921 12.73 13.6239 12.6128 13.7927C12.4956 13.9615 12.2638 14.0034 12.0951 13.8862L10.8633 13.0312V11.0429C10.8633 10.8375 11.0298 10.6709 11.2353 10.6709Z" fill="#40445A"/>
</g>
<defs>
<clipPath id="clip0_1642_1648">
<rect width="14.2857" height="15" fill="white" transform="translate(0 0.5)"/>
</clipPath>
</defs>
</svg>
