<svg width="20" height="20" viewBox="0 0 20 20" fill="none" xmlns="http://www.w3.org/2000/svg">
<path d="M8.33268 12.9167L10.8327 13.75C10.8327 13.75 17.0827 12.5 17.916 12.5C18.7493 12.5 18.7493 13.3333 17.916 14.1667C17.0827 15 14.166 17.5 11.666 17.5C9.16602 17.5 7.49935 16.25 5.83268 16.25C4.16602 16.25 1.66602 16.25 1.66602 16.25" stroke="#40445A" stroke-linecap="round" stroke-linejoin="round"/>
<path d="M1.66602 11.2503C2.49935 10.417 4.16602 9.16699 5.83268 9.16699C7.49935 9.16699 11.4577 10.8337 12.0827 11.667C12.7077 12.5003 10.8327 13.7503 10.8327 13.7503" stroke="#40445A" stroke-linecap="round" stroke-linejoin="round"/>
<path d="M6.66602 6.66667V3.33333C6.66602 2.8731 7.0391 2.5 7.49935 2.5H17.4993C17.9596 2.5 18.3327 2.8731 18.3327 3.33333V10" stroke="#40445A" stroke-linecap="round" stroke-linejoin="round"/>
<path d="M14.5827 2.5H10.416V6.25H14.5827V2.5Z" stroke="#40445A" stroke-linecap="round" stroke-linejoin="round"/>
</svg>
