<svg width="18" height="20" viewBox="0 0 18 20" fill="none" xmlns="http://www.w3.org/2000/svg">
<g id="Group">
<path id="Vector" fill-rule="evenodd" clip-rule="evenodd" d="M16.1057 2.10938L17.5527 3.02082V9.90073C17.5527 12.448 16.4291 14.6394 14.3605 16.1261L8.9707 20L3.58064 16.1261C1.51224 14.6394 0.388672 12.448 0.388672 9.90073V3.02078L1.83557 2.10934C6.30076 -0.703119 11.6404 -0.703119 16.1057 2.10938Z" fill="#1CA45C"/>
<path id="Vector_2" fill-rule="evenodd" clip-rule="evenodd" d="M9.00005 13.7031C11.7539 13.7031 14 11.457 14 8.70314C14 5.94923 11.7539 3.70312 9.00005 3.70312C6.24614 3.70312 4 5.94923 4 8.70314C4 11.457 6.24614 13.7031 9.00005 13.7031Z" fill="white"/>
<path id="Vector_3" fill-rule="evenodd" clip-rule="evenodd" d="M10.5352 6.88301C10.7559 6.64316 11.1137 6.64316 11.3344 6.88301C11.5552 7.12282 11.5552 7.51165 11.3344 7.75146L8.24651 11.1066C8.0258 11.3464 7.66797 11.3464 7.44726 11.1066C7.42325 11.0805 7.4018 11.0526 7.38299 11.0233L6.12254 9.29997C5.92867 9.03494 5.96925 8.64935 6.21307 8.4387C6.45699 8.22805 6.81187 8.27207 7.00574 8.53707L7.89449 9.75221L10.5352 6.88301Z" fill="#1CA45C"/>
</g>
</svg>
