<svg width="90" height="16" viewBox="0 0 90 16" fill="none" xmlns="http://www.w3.org/2000/svg">
<g id="stars">
<path id="Star 1" d="M8 0L9.79611 5.52786H15.6085L10.9062 8.94427L12.7023 14.4721L8 11.0557L3.29772 14.4721L5.09383 8.94427L0.391548 5.52786H6.20389L8 0Z" fill="#1CA45C"/>
<path id="Star 2" d="M26.3984 0L28.1945 5.52786H34.0069L29.3046 8.94427L31.1007 14.4721L26.3984 11.0557L21.6962 14.4721L23.4923 8.94427L18.79 5.52786H24.6023L26.3984 0Z" fill="#1CA45C"/>
<path id="Star 3" d="M44.8008 0L46.5969 5.52786H52.4092L47.707 8.94427L49.5031 14.4721L44.8008 11.0557L40.0985 14.4721L41.8946 8.94427L37.1923 5.52786H43.0047L44.8008 0Z" fill="#1CA45C"/>
<path id="Star 4" d="M63.1992 0L64.9953 5.52786H70.8077L66.1054 8.94427L67.9015 14.4721L63.1992 11.0557L58.4969 14.4721L60.293 8.94427L55.5908 5.52786H61.4031L63.1992 0Z" fill="#1CA45C"/>
<path id="Star 5" d="M81.5996 0L83.3957 5.52786H89.2081L84.5058 8.94427L86.3019 14.4721L81.5996 11.0557L76.8973 14.4721L78.6934 8.94427L73.9912 5.52786H79.8035L81.5996 0Z" fill="#1CA45C"/>
</g>
</svg>
