<svg width="20" height="20" viewBox="0 0 20 20" fill="none" xmlns="http://www.w3.org/2000/svg">
<g clip-path="url(#clip0_1642_898)">
<path d="M18.9004 19.4004H0.900391C0.620391 19.4004 0.400391 19.0521 0.400391 18.6087V1.19206C0.400391 0.748721 0.620391 0.400391 0.900391 0.400391H18.9004C19.1804 0.400391 19.4004 0.748721 19.4004 1.19206V18.6087C19.4004 19.0521 19.1804 19.4004 18.9004 19.4004Z" stroke="#40445A" stroke-miterlimit="10" stroke-linecap="round" stroke-linejoin="round"/>
<path d="M17.4004 7.90039H15.4004" stroke="#40445A" stroke-miterlimit="10" stroke-linecap="round" stroke-linejoin="round"/>
<path d="M17.4004 11.9004H15.4004" stroke="#40445A" stroke-miterlimit="10" stroke-linecap="round" stroke-linejoin="round"/>
<path d="M4.40039 11.9004H2.40039" stroke="#40445A" stroke-miterlimit="10" stroke-linecap="round" stroke-linejoin="round"/>
<path d="M4.40039 7.90039H2.40039" stroke="#40445A" stroke-miterlimit="10" stroke-linecap="round" stroke-linejoin="round"/>
<path d="M17.4004 3.40039H15.4004" stroke="#40445A" stroke-miterlimit="10" stroke-linecap="round" stroke-linejoin="round"/>
<path d="M4.40039 3.90039H2.40039" stroke="#40445A" stroke-miterlimit="10" stroke-linecap="round" stroke-linejoin="round"/>
<path d="M17.4004 15.3994H15.4004" stroke="#40445A" stroke-miterlimit="10" stroke-linecap="round" stroke-linejoin="round"/>
<path d="M4.40039 15.8994H2.40039" stroke="#40445A" stroke-miterlimit="10" stroke-linecap="round" stroke-linejoin="round"/>
<path d="M11.6385 9.40454L8.75846 7.56454C8.38846 7.32454 7.89844 7.60454 7.89844 8.05454V11.7445C7.89844 12.1945 8.38846 12.4745 8.75846 12.2345L11.6385 10.3945C11.9885 10.1545 11.9885 9.63454 11.6385 9.40454Z" stroke="#40445A" stroke-miterlimit="10" stroke-linecap="round" stroke-linejoin="round"/>
</g>
<defs>
<clipPath id="clip0_1642_898">
<rect width="20" height="20" fill="white"/>
</clipPath>
</defs>
</svg>
